<mxfile host="app.diagrams.net" modified="2024-05-21T02:57:24.144Z" agent="Mozilla/5.0 (Windows NT 10.0; Win64; x64) AppleWebKit/537.36 (KHTML, like Gecko) Chrome/125.0.0.0 Safari/537.36" version="24.4.4" etag="Cgt35X1qvQewLfDwNvZH" type="github">
  <diagram name="ページ1" id="WVtBT_adaGWps1Epuvlq">
    <mxGraphModel>
      <root>
        <mxCell id="0" />
        <mxCell id="1" parent="0" />
      </root>
    </mxGraphModel>
  </diagram>
</mxfile>
